<svg width="592" height="493" viewBox="0 0 592 493" fill="none" xmlns="http://www.w3.org/2000/svg">
<g clip-path="url(#clip0_2_34)">
<path d="M18.21 486.429H566.923" stroke="#263238" stroke-linecap="round" stroke-linejoin="round"/>
<path d="M487.37 402.791C490.01 403.975 496.451 403.797 496.463 403.797C496.475 403.797 495.078 399.582 494.947 399.322C493.539 396.362 489.027 391.472 485.475 391.969C484.867 392.056 484.284 392.27 483.765 392.598C483.245 392.927 482.801 393.361 482.462 393.874C482.123 394.386 481.897 394.965 481.798 395.571C481.699 396.178 481.729 396.798 481.888 397.392C482.539 399.938 485.12 401.808 487.37 402.791Z" fill="#263238"/>
<path d="M489.596 421.475C492.331 421.865 498.085 420.208 498.547 420.066C499.488 423.362 500.655 426.591 502.04 429.727C502.821 431.562 503.685 433.374 504.562 435.197C504.041 434.428 503.555 433.741 503.484 433.658C501.341 431.172 495.729 427.643 492.355 429.076C491.8 429.331 491.305 429.699 490.902 430.158C490.498 430.616 490.196 431.154 490.014 431.737C489.832 432.319 489.775 432.934 489.845 433.54C489.916 434.146 490.113 434.731 490.425 435.256C491.668 437.53 494.663 438.654 497.091 438.998C499.518 439.341 504.479 438.039 505.781 437.672L506.811 439.744C508.481 443.071 510.162 446.374 511.701 449.666C512.246 450.85 512.743 452.034 513.24 453.147C512.779 452.46 512.376 451.892 512.305 451.809C510.162 449.334 504.55 445.794 501.175 447.238C500.621 447.492 500.126 447.859 499.723 448.317C499.32 448.774 499.018 449.311 498.836 449.893C498.654 450.474 498.596 451.088 498.667 451.693C498.737 452.299 498.934 452.883 499.245 453.407C500.429 455.68 503.484 456.805 505.911 457.16C508.339 457.516 512.826 456.32 514.377 455.893C514.851 457.077 515.324 458.261 515.727 459.445C515.987 460.262 516.295 461.032 516.508 461.813C516.721 462.595 516.97 463.459 517.195 464.264C517.574 465.827 517.964 467.449 518.296 469C518.533 470.066 518.734 471.096 518.947 472.126C518.414 470.942 517.337 468.716 517.219 468.574C515.478 465.792 510.47 461.47 506.906 462.358C506.32 462.526 505.775 462.815 505.308 463.207C504.841 463.599 504.462 464.085 504.195 464.634C503.928 465.182 503.779 465.781 503.759 466.39C503.738 467 503.847 467.607 504.076 468.172C504.964 470.611 507.747 472.173 510.091 472.908C512.672 473.689 518.379 472.967 519.101 472.908C519.433 474.612 519.752 476.282 520.025 477.857C520.593 481.053 521.031 483.942 521.363 486.429H523.731C523.316 483.848 522.795 480.817 522.132 477.454C521.789 475.725 521.398 473.902 520.948 471.984C522.665 471.29 524.341 470.499 525.968 469.616C527.851 471.652 532.67 474.044 533.285 474.352C532.634 475.962 531.983 477.525 531.344 478.993C530.16 481.776 528.976 484.274 527.934 486.441H530.515C531.403 484.475 532.35 482.261 533.345 479.846C534.019 478.2 534.706 476.448 535.393 474.636C536.08 474.778 541.739 475.927 544.368 475.335C546.736 474.79 549.66 473.44 550.726 471.072C550.998 470.528 551.153 469.932 551.18 469.324C551.207 468.716 551.105 468.109 550.882 467.542C550.658 466.976 550.318 466.463 549.883 466.037C549.448 465.611 548.929 465.281 548.358 465.069C544.877 463.885 539.561 467.852 537.619 470.492C537.5 470.646 536.435 472.481 535.796 473.642C536.068 472.896 536.352 472.185 536.624 471.416C537.181 469.9 537.69 468.373 538.246 466.68C538.483 465.875 538.732 465.069 538.969 464.252C539.205 463.436 539.407 462.559 539.632 461.707C540.105 459.718 540.484 457.681 540.816 455.609C542.142 456.095 546.878 457.752 549.34 457.575C551.803 457.397 554.846 456.509 556.267 454.331C556.617 453.831 556.857 453.263 556.973 452.664C557.088 452.064 557.077 451.448 556.938 450.854C556.8 450.259 556.537 449.701 556.169 449.215C555.8 448.729 555.333 448.325 554.799 448.032C551.531 446.339 545.682 449.452 543.361 451.761C543.207 451.903 541.727 453.75 540.934 454.78C541.135 453.596 541.337 452.306 541.491 451.039C541.94 447.404 542.284 443.698 542.675 440.016L543.03 436.63C543.503 436.807 549.092 438.891 551.839 438.69C554.29 438.524 557.356 437.624 558.765 435.446C559.115 434.947 559.356 434.379 559.473 433.781C559.589 433.182 559.579 432.566 559.441 431.972C559.304 431.377 559.043 430.819 558.676 430.332C558.308 429.846 557.843 429.442 557.309 429.147C554.041 427.466 548.192 430.568 545.86 432.876C545.694 433.054 543.563 435.718 543.053 436.428C543.314 433.954 543.598 431.479 543.977 429.052C544.471 425.777 545.179 422.538 546.096 419.355C546.309 419.438 552.135 421.64 554.953 421.439C557.403 421.273 560.47 420.373 561.879 418.195C562.231 417.696 562.474 417.129 562.591 416.53C562.709 415.931 562.699 415.314 562.561 414.719C562.424 414.125 562.162 413.566 561.793 413.079C561.425 412.593 560.958 412.189 560.423 411.896C557.155 410.215 551.306 413.317 548.973 415.626C548.796 415.815 546.511 418.68 546.132 419.178C546.132 418.988 546.215 418.799 546.274 418.609C547.281 415.442 548.569 412.371 550.122 409.433C550.951 407.799 551.851 406.284 552.739 404.828C553.792 405.348 558.576 407.669 561.133 407.776C563.691 407.882 566.733 407.314 568.379 405.313C568.783 404.854 569.085 404.315 569.266 403.732C569.448 403.148 569.504 402.533 569.431 401.926C569.359 401.32 569.159 400.735 568.845 400.211C568.531 399.687 568.11 399.234 567.61 398.884C564.555 396.859 558.398 399.298 555.829 401.347C555.687 401.453 554.396 402.744 553.461 403.715C553.875 403.063 554.29 402.388 554.704 401.773C556.243 399.405 557.782 397.428 559.18 395.652C559.973 394.645 560.707 393.745 561.417 392.916C562.708 392.916 567.906 392.739 570.179 391.673C572.452 390.608 574.915 388.69 575.471 386.144C575.613 385.556 575.63 384.945 575.522 384.35C575.414 383.755 575.184 383.188 574.845 382.687C574.507 382.186 574.067 381.761 573.556 381.439C573.044 381.117 572.47 380.904 571.872 380.816C568.225 380.425 563.88 385.434 562.554 388.429C562.436 388.69 561.098 392.952 561.169 392.94H561.216C560.529 393.733 559.795 394.574 559.014 395.521C557.581 397.274 555.983 399.275 554.396 401.572C552.651 404.018 551.05 406.564 549.601 409.196C547.969 412.14 546.602 415.223 545.516 418.408C545.511 418.447 545.511 418.487 545.516 418.526C545.516 417.449 545.516 414.442 545.457 414.205C545.031 410.961 542.308 404.922 538.696 404.247C538.093 404.154 537.478 404.188 536.889 404.347C536.3 404.507 535.751 404.788 535.278 405.173C534.804 405.558 534.417 406.038 534.141 406.583C533.866 407.127 533.707 407.723 533.676 408.332C533.463 410.925 535.346 413.506 537.169 415.14C539.229 416.987 544.948 418.763 545.457 418.905C544.445 422.175 543.653 425.51 543.089 428.886C542.734 430.852 542.438 432.841 542.177 434.806C542.177 433.871 542.177 433.042 542.177 432.924C541.751 429.668 539.028 423.629 535.417 422.966C534.814 422.873 534.198 422.907 533.609 423.066C533.02 423.226 532.471 423.507 531.998 423.892C531.525 424.277 531.138 424.757 530.862 425.302C530.586 425.846 530.427 426.442 530.396 427.051C530.183 429.644 532.054 432.225 533.889 433.859C535.724 435.493 540.591 437.139 541.881 437.541C541.787 438.311 541.68 439.081 541.585 439.909C541.147 443.592 540.721 447.274 540.2 450.873C540.011 452.14 539.786 453.383 539.561 454.627C539.561 453.798 539.561 453.099 539.561 452.993C539.134 449.748 536.411 443.71 532.8 443.035C532.197 442.941 531.581 442.976 530.992 443.136C530.403 443.296 529.854 443.579 529.381 443.965C528.909 444.352 528.523 444.834 528.249 445.379C527.975 445.925 527.819 446.522 527.792 447.132C527.579 449.713 529.449 452.294 531.273 453.928C533.096 455.562 537.5 457.042 539.04 457.539C538.767 458.806 538.495 460.073 538.187 461.292C537.95 462.121 537.773 462.926 537.5 463.743C537.228 464.56 536.98 465.365 536.719 466.111C536.163 467.627 535.606 469.19 535.026 470.658C534.635 471.688 534.244 472.647 533.842 473.63C534.043 472.363 534.375 469.888 534.375 469.687C534.34 466.799 533.561 463.969 532.113 461.47C532.123 461.149 532.103 460.828 532.054 460.511C531.977 459.906 531.774 459.323 531.458 458.801C531.142 458.279 530.719 457.829 530.218 457.481C529.717 457.133 529.148 456.894 528.548 456.779C527.949 456.665 527.332 456.678 526.738 456.817C523.186 457.764 520.936 463.992 520.818 467.272C520.818 467.461 520.936 469.58 521.031 470.907C520.853 470.137 520.688 469.379 520.498 468.539C520.131 466.976 519.705 465.413 519.314 463.743C519.066 462.938 518.829 462.133 518.58 461.304C518.331 460.476 518 459.659 517.716 458.83C517.017 456.912 516.212 454.994 515.348 453.087C516.721 452.756 521.587 451.524 523.541 450.021C525.495 448.517 527.543 446.09 527.519 443.497C527.539 442.882 527.427 442.271 527.192 441.703C526.957 441.135 526.604 440.623 526.156 440.202C525.708 439.781 525.176 439.46 524.594 439.261C524.013 439.061 523.395 438.988 522.783 439.045C519.125 439.436 515.964 445.261 515.3 448.517C515.3 448.718 515.04 451.075 514.945 452.377C514.424 451.193 513.903 450.092 513.347 448.955C511.713 445.664 509.961 442.384 508.22 439.116C507.687 438.11 507.166 437.103 506.645 436.097C507.131 435.979 512.944 434.641 515.135 432.959C517.076 431.468 519.137 429.028 519.125 426.436C519.14 425.822 519.026 425.212 518.79 424.646C518.554 424.08 518.2 423.57 517.753 423.149C517.306 422.729 516.775 422.408 516.196 422.207C515.616 422.006 515 421.93 514.389 421.984C510.742 422.374 507.569 428.2 506.906 431.456C506.906 431.692 506.551 435.091 506.515 435.955C505.331 433.741 504.242 431.527 503.212 429.301C501.828 426.295 500.642 423.202 499.66 420.042C499.885 419.983 505.959 418.609 508.196 416.881C510.138 415.389 512.198 412.95 512.187 410.357C512.202 409.743 512.088 409.134 511.852 408.567C511.615 408.001 511.262 407.491 510.815 407.071C510.368 406.65 509.837 406.329 509.257 406.128C508.678 405.928 508.062 405.851 507.451 405.905C503.804 406.308 500.631 412.121 499.968 415.377C499.968 415.626 499.589 419.272 499.577 419.947C499.518 419.758 499.435 419.58 499.388 419.391C498.475 416.193 497.852 412.92 497.529 409.611C497.327 407.788 497.233 406.059 497.173 404.33C498.357 404.188 503.614 403.478 505.805 402.152C507.995 400.826 510.221 398.683 510.541 396.113C510.624 395.508 510.579 394.892 510.409 394.306C510.239 393.719 509.947 393.175 509.553 392.708C509.159 392.241 508.671 391.863 508.121 391.597C507.571 391.331 506.972 391.183 506.361 391.164C502.691 391.164 498.902 396.599 497.884 399.713C497.884 399.89 497.469 401.678 497.209 402.98C497.209 402.211 497.209 401.406 497.209 400.672C497.209 397.889 497.398 395.344 497.564 393.094C497.683 391.815 497.801 390.726 497.931 389.542C498.997 388.808 503.247 385.801 504.55 383.622C505.852 381.444 506.918 378.519 505.911 376.104C505.706 375.536 505.386 375.018 504.969 374.582C504.553 374.145 504.051 373.8 503.494 373.569C502.937 373.337 502.338 373.224 501.735 373.236C501.132 373.249 500.538 373.386 499.991 373.641C496.724 375.334 495.871 381.929 496.439 385.138C496.439 385.422 497.718 389.708 497.777 389.672H497.848C497.694 390.702 497.552 391.815 497.422 393.035C497.209 395.296 496.972 397.842 496.901 400.624C496.797 403.63 496.872 406.638 497.126 409.635C497.388 412.992 497.943 416.319 498.784 419.58V419.687C498.203 418.787 496.499 416.3 496.345 416.135C494.202 413.648 488.601 410.12 485.215 411.553C484.66 411.807 484.165 412.176 483.762 412.634C483.359 413.093 483.057 413.631 482.875 414.213C482.693 414.796 482.635 415.411 482.706 416.017C482.777 416.623 482.974 417.208 483.285 417.733C484.185 419.995 487.169 421.072 489.596 421.475Z" fill="#263238"/>
<path d="M552.596 404.212C552.596 404.212 553.78 399.926 553.78 399.642C554.23 396.397 553.2 389.85 549.897 388.252C549.34 388.002 548.737 387.873 548.127 387.871C547.517 387.87 546.913 387.996 546.355 388.243C545.797 388.49 545.297 388.851 544.887 389.303C544.477 389.755 544.167 390.288 543.977 390.868C543.089 393.307 544.214 396.303 545.54 398.363C547.138 400.778 552.596 404.212 552.596 404.212Z" fill="#263238"/>
<path d="M439.264 290.832C441.147 291.661 445.764 291.554 445.764 291.554C445.764 291.554 444.77 288.535 444.687 288.357C443.668 286.238 440.472 282.745 437.879 283.1C437.447 283.17 437.035 283.329 436.67 283.568C436.304 283.807 435.993 284.121 435.758 284.489C435.522 284.857 435.366 285.27 435.301 285.702C435.236 286.134 435.263 286.575 435.38 286.996C435.83 288.736 437.677 290.074 439.264 290.832Z" fill="#263238"/>
<path d="M440.874 304.116C442.828 304.401 446.936 303.217 447.268 303.122C447.937 305.473 448.767 307.776 449.754 310.013C450.322 311.327 450.938 312.629 451.566 313.932C451.187 313.375 450.843 312.89 450.796 312.831C449.257 311.055 445.255 308.533 442.84 309.551C442.444 309.734 442.091 309.998 441.803 310.325C441.516 310.653 441.3 311.037 441.169 311.452C441.039 311.868 440.997 312.307 441.046 312.74C441.095 313.173 441.234 313.591 441.454 313.967C442.354 315.589 444.485 316.335 446.19 316.643C447.895 316.951 451.471 315.956 452.406 315.696C452.643 316.193 452.892 316.691 453.14 317.176C454.324 319.544 455.508 321.912 456.633 324.28C457.024 325.109 457.367 325.938 457.734 326.766L457.059 325.807C455.532 324.043 451.518 321.521 449.103 322.539C448.707 322.722 448.354 322.986 448.067 323.314C447.779 323.641 447.564 324.026 447.434 324.442C447.305 324.859 447.264 325.297 447.315 325.73C447.366 326.163 447.507 326.581 447.73 326.956C448.618 328.578 450.761 329.383 452.466 329.632C454.517 329.648 456.558 329.345 458.516 328.732C458.859 329.584 459.191 330.449 459.487 331.301C459.676 331.881 459.889 332.485 460.043 333.03C460.197 333.574 460.363 334.214 460.529 334.782C460.801 335.895 461.085 337.055 461.322 338.156C461.488 338.914 461.63 339.648 461.784 340.382C461.405 339.554 460.6 338.014 460.6 337.825C459.416 335.836 455.781 332.734 453.235 333.385C452.815 333.504 452.426 333.711 452.091 333.991C451.756 334.271 451.484 334.618 451.292 335.01C451.1 335.401 450.992 335.829 450.976 336.265C450.96 336.701 451.036 337.136 451.199 337.541C451.838 339.281 453.827 340.394 455.508 340.915C457.19 341.436 461.428 340.915 461.938 340.915C462.186 342.099 462.411 343.283 462.601 344.467C463.003 346.752 463.323 348.812 463.56 350.6H465.312C465.016 348.753 464.649 346.587 464.128 344.183C463.891 342.94 463.607 341.626 463.299 340.276C464.516 339.783 465.702 339.218 466.851 338.583C468.434 339.941 470.194 341.076 472.084 341.957C471.623 343.141 471.149 344.23 470.687 345.272C469.823 347.261 469.006 349.049 468.26 350.6H470.107C470.735 349.191 471.421 347.617 472.132 345.864C472.605 344.68 473.103 343.437 473.588 342.147C474.085 342.253 478.123 343.07 480.005 342.644C481.888 342.218 483.782 341.294 484.552 339.601C484.745 339.21 484.853 338.784 484.87 338.348C484.887 337.913 484.812 337.479 484.65 337.075C484.488 336.671 484.242 336.305 483.93 336.002C483.617 335.698 483.244 335.464 482.835 335.315C480.349 334.474 476.548 337.304 475.151 339.187C475.068 339.305 474.31 340.607 473.849 341.436C474.05 340.903 474.251 340.394 474.441 339.85C474.843 338.76 475.21 337.671 475.625 336.499C475.802 335.919 475.968 335.315 476.146 334.758C476.323 334.202 476.453 333.574 476.619 332.947C476.951 331.526 477.223 330.07 477.472 328.59C478.419 328.933 481.805 330.117 483.557 329.987C485.31 329.857 487.5 329.229 488.507 327.678C488.757 327.32 488.93 326.914 489.013 326.486C489.096 326.057 489.089 325.616 488.99 325.19C488.892 324.765 488.705 324.365 488.443 324.017C488.18 323.668 487.847 323.378 487.465 323.167C485.097 321.983 480.953 324.185 479.283 325.843C479.188 325.938 478.099 327.264 477.555 327.998C477.697 327.11 477.839 326.222 477.957 325.322C478.277 322.729 478.525 320.077 478.774 317.436L479.023 315.068C479.366 315.199 483.356 316.691 485.322 316.548C487.074 316.43 489.264 315.779 490.271 314.18C490.521 313.824 490.693 313.419 490.777 312.991C490.86 312.563 490.852 312.123 490.754 311.698C490.655 311.274 490.469 310.875 490.206 310.527C489.943 310.18 489.61 309.892 489.229 309.681C486.861 308.497 482.717 310.7 481.047 312.345C480.929 312.476 479.402 314.37 479.046 314.879C479.236 313.103 479.437 311.327 479.709 309.61C480.062 307.268 480.564 304.95 481.213 302.672C481.379 302.731 485.535 304.306 487.547 304.164C489.3 304.045 491.49 303.394 492.497 301.796C492.747 301.439 492.919 301.034 493.003 300.606C493.086 300.179 493.078 299.738 492.98 299.314C492.881 298.889 492.695 298.49 492.432 298.143C492.169 297.795 491.836 297.507 491.455 297.297C489.087 296.113 484.943 298.303 483.273 299.961C483.143 300.091 481.509 302.139 481.249 302.53C481.249 302.4 481.249 302.258 481.343 302.127C482.065 299.865 482.984 297.67 484.09 295.568C484.694 294.384 485.274 293.318 485.973 292.276C486.719 292.643 490.14 294.313 491.964 294.384C493.787 294.455 495.966 294.052 497.138 292.62C497.425 292.293 497.64 291.909 497.769 291.493C497.898 291.078 497.938 290.64 497.887 290.207C497.835 289.775 497.694 289.359 497.471 288.985C497.248 288.611 496.949 288.288 496.593 288.038C494.415 286.581 490.01 288.322 488.175 289.79C488.08 289.873 487.157 290.785 486.482 291.471C486.79 290.998 487.086 290.512 487.382 290.074C488.471 288.428 489.584 286.972 490.579 285.705C491.147 284.983 491.668 284.344 492.177 283.752C493.1 283.752 496.806 283.621 498.428 282.864C500.051 282.106 501.827 280.732 502.217 278.909C502.321 278.485 502.334 278.045 502.256 277.615C502.179 277.186 502.011 276.778 501.766 276.417C501.52 276.057 501.202 275.752 500.831 275.522C500.46 275.293 500.045 275.144 499.612 275.085C497.008 274.812 493.906 278.388 492.947 280.531C492.864 280.709 491.916 283.752 491.964 283.752L490.389 285.599C489.371 286.854 488.234 288.275 487.098 289.908C485.847 291.659 484.701 293.482 483.664 295.367C482.501 297.473 481.523 299.675 480.739 301.95C480.745 301.977 480.745 302.005 480.739 302.033C480.739 301.263 480.739 299.108 480.739 298.942C480.432 296.574 478.49 292.312 475.909 291.838C475.48 291.777 475.043 291.806 474.627 291.922C474.21 292.039 473.822 292.242 473.487 292.517C473.153 292.792 472.88 293.134 472.685 293.521C472.491 293.907 472.379 294.33 472.357 294.763C472.203 296.61 473.541 298.457 474.855 299.629C476.169 300.801 480.408 302.21 480.775 302.317C480.04 304.643 479.463 307.017 479.046 309.421C478.798 310.83 478.585 312.251 478.395 313.683C478.395 313.02 478.395 312.416 478.395 312.333C478.099 309.965 476.146 305.691 473.564 305.229C473.136 305.166 472.698 305.193 472.28 305.309C471.863 305.425 471.474 305.628 471.139 305.903C470.805 306.179 470.532 306.522 470.337 306.909C470.143 307.297 470.033 307.721 470.012 308.154C469.859 310.001 471.196 311.848 472.499 313.02C473.801 314.192 477.235 315.388 478.206 315.649C478.147 316.193 478.064 316.75 478.004 317.294C477.685 319.923 477.389 322.563 477.01 325.132C476.88 326.032 476.714 326.92 476.56 327.808C476.56 327.216 476.56 326.719 476.56 326.624C476.252 324.256 474.31 319.982 471.729 319.52C471.301 319.459 470.864 319.487 470.447 319.604C470.03 319.721 469.642 319.923 469.308 320.199C468.974 320.474 468.7 320.816 468.506 321.203C468.311 321.589 468.199 322.012 468.177 322.445C468.023 324.292 469.361 326.139 470.675 327.299C472.377 328.442 474.247 329.313 476.217 329.88C476.027 330.792 475.838 331.692 475.613 332.568C475.435 333.148 475.317 333.752 475.115 334.308C474.914 334.865 474.748 335.492 474.559 336.037C474.168 337.126 473.766 338.239 473.375 339.293C473.103 340.027 472.819 340.714 472.534 341.412C472.676 340.513 472.925 338.748 472.925 338.595C472.903 336.515 472.344 334.475 471.303 332.675C471.327 332.446 471.327 332.216 471.303 331.988C471.248 331.555 471.103 331.139 470.877 330.766C470.651 330.393 470.348 330.073 469.99 329.825C469.631 329.577 469.224 329.407 468.796 329.327C468.367 329.247 467.926 329.258 467.502 329.359C464.957 330.034 463.358 334.486 463.228 336.819C463.228 336.961 463.311 338.464 463.394 339.423C463.264 338.867 463.145 338.334 463.003 337.766C462.743 336.641 462.447 335.528 462.127 334.332C461.945 333.764 461.768 333.184 461.594 332.592C461.44 332.011 461.192 331.408 460.99 330.827C460.481 329.454 459.913 328.081 459.297 326.719C460.28 326.482 463.761 325.606 465.146 324.529C466.531 323.451 468.011 321.723 468 319.864C468.013 319.428 467.934 318.995 467.768 318.592C467.602 318.189 467.352 317.826 467.036 317.526C466.719 317.226 466.343 316.997 465.932 316.853C465.52 316.709 465.083 316.654 464.649 316.691C462.032 316.975 459.771 321.131 459.297 323.427C459.297 323.57 459.108 325.251 459.049 326.174C458.67 325.357 458.303 324.54 457.865 323.735C456.681 321.367 455.497 318.999 454.206 316.702C453.827 315.98 453.448 315.27 453.081 314.547C453.425 314.465 457.58 313.506 459.143 312.298C460.706 311.09 462.009 309.492 461.997 307.645C462.008 307.208 461.928 306.774 461.76 306.37C461.593 305.967 461.342 305.603 461.025 305.303C460.708 305.003 460.331 304.772 459.919 304.627C459.507 304.482 459.07 304.425 458.634 304.46C456.029 304.744 453.768 308.9 453.294 311.197C453.294 311.374 453.034 313.79 453.01 314.417C452.193 312.831 451.388 311.244 450.642 309.681C449.646 307.533 448.792 305.322 448.085 303.063C448.239 303.063 452.584 302.033 454.182 300.813C455.568 299.747 457.048 297.995 457.036 296.148C457.047 295.711 456.967 295.277 456.799 294.874C456.632 294.47 456.381 294.107 456.064 293.806C455.747 293.506 455.37 293.276 454.958 293.13C454.547 292.985 454.109 292.928 453.673 292.963C451.068 293.247 448.807 297.403 448.333 299.7C448.333 299.878 448.061 302.494 448.049 302.968C448.049 302.838 447.955 302.708 447.919 302.577C447.263 300.294 446.815 297.956 446.581 295.592C446.439 294.277 446.368 293.034 446.332 291.803C447.161 291.708 450.938 291.199 452.501 290.252C454.064 289.305 455.651 287.777 455.84 285.93C455.904 285.497 455.875 285.054 455.755 284.633C455.636 284.211 455.428 283.82 455.146 283.484C454.864 283.148 454.514 282.876 454.12 282.686C453.725 282.495 453.294 282.39 452.856 282.378C450.228 282.378 447.528 286.262 446.806 288.488C446.806 288.618 446.498 289.885 446.321 290.856C446.321 290.311 446.321 289.672 446.321 289.21C446.321 287.221 446.451 285.409 446.569 283.799C446.652 282.887 446.735 282.059 446.83 281.289C447.587 280.768 450.63 278.625 451.566 277.086C452.501 275.547 453.223 273.439 452.548 271.71C452.402 271.3 452.171 270.925 451.871 270.609C451.57 270.294 451.206 270.045 450.803 269.88C450.399 269.715 449.966 269.636 449.53 269.65C449.094 269.663 448.666 269.768 448.274 269.958C445.906 271.142 445.326 275.878 445.717 278.163C445.717 278.364 446.628 281.431 446.664 281.407C446.557 282.153 446.463 282.947 446.368 283.775C446.202 285.386 446.036 287.209 445.989 289.198C445.919 291.346 445.971 293.497 446.143 295.639C446.33 298.037 446.726 300.414 447.327 302.743C447.332 302.77 447.332 302.799 447.327 302.826C446.913 302.175 445.705 300.458 445.598 300.28C444.059 298.504 440.057 295.982 437.642 297.001C437.246 297.184 436.893 297.447 436.606 297.775C436.318 298.102 436.102 298.486 435.972 298.902C435.841 299.318 435.799 299.757 435.848 300.19C435.897 300.623 436.036 301.041 436.257 301.417C437.002 303.063 439.134 303.856 440.874 304.116Z" fill="#263238"/>
<path d="M485.89 291.791C485.89 291.791 486.731 288.724 486.754 288.523C487.074 286.155 486.34 281.526 483.972 280.389C483.574 280.21 483.143 280.116 482.707 280.114C482.271 280.113 481.839 280.203 481.44 280.38C481.041 280.556 480.684 280.815 480.392 281.139C480.1 281.463 479.879 281.845 479.745 282.26C479.106 284 479.911 286.131 480.87 287.6C481.983 289.328 485.89 291.791 485.89 291.791Z" fill="#263238"/>
<path d="M110.29 402.791C107.661 403.975 101.208 403.797 101.208 403.797C101.208 403.797 102.594 399.582 102.712 399.322C104.133 396.362 108.632 391.472 112.184 391.969C112.792 392.06 113.374 392.278 113.891 392.61C114.408 392.941 114.849 393.379 115.185 393.894C115.52 394.408 115.743 394.988 115.838 395.596C115.933 396.203 115.898 396.823 115.736 397.416C115.132 399.938 112.539 401.808 110.29 402.791Z" fill="#263238"/>
<path d="M108.064 421.475C105.34 421.865 99.5744 420.208 99.1245 420.066C98.1535 423.36 96.967 426.588 95.5725 429.727C94.7792 431.562 93.9267 433.374 93.0505 435.197C93.5715 434.427 94.0451 433.741 94.128 433.658C96.271 431.172 101.871 427.643 105.258 429.076C105.821 429.325 106.325 429.69 106.736 430.147C107.148 430.605 107.458 431.145 107.646 431.731C107.834 432.317 107.895 432.937 107.827 433.548C107.758 434.16 107.56 434.75 107.247 435.28C105.992 437.553 103.008 438.678 100.581 439.021C98.1536 439.365 93.1808 438.062 91.8784 437.695C91.535 438.382 91.2035 439.081 90.8483 439.767C89.1907 443.094 87.5094 446.398 85.9584 449.689C85.4137 450.873 84.9283 452.057 84.431 453.17C84.8928 452.483 85.2953 451.915 85.3664 451.832C87.5094 449.358 93.1097 445.818 96.496 447.262C97.0504 447.516 97.5452 447.883 97.9483 448.34C98.3514 448.798 98.6538 449.334 98.8358 449.916C99.0178 450.498 99.0754 451.112 99.0048 451.717C98.9342 452.323 98.7369 452.906 98.4259 453.431C97.1709 455.704 94.1753 456.829 91.76 457.184C89.3446 457.539 84.8454 456.343 83.2944 455.917C82.8208 457.101 82.3353 458.285 81.9328 459.469C81.6723 460.286 81.3645 461.056 81.1513 461.837L80.512 464.359C80.1331 465.922 79.7305 467.544 79.4109 469.095C79.1741 470.161 78.9609 471.191 78.7478 472.221C79.2806 471.037 80.3699 468.811 80.4765 468.669C82.2288 465.886 87.2253 461.565 90.7891 462.453C91.3765 462.619 91.9221 462.908 92.3906 463.299C92.859 463.691 93.2397 464.177 93.5078 464.725C93.7759 465.274 93.9254 465.872 93.9466 466.483C93.9678 467.093 93.8601 467.7 93.6307 468.266C92.7427 470.705 89.9485 472.268 87.616 473.002C85.0349 473.784 79.328 473.061 78.6057 473.002C78.2624 474.707 77.9427 476.377 77.6704 477.951C77.1139 481.148 76.6758 484.037 76.3325 486.523H73.9645C74.367 483.942 74.888 480.911 75.551 477.549C75.8944 475.82 76.2969 473.997 76.735 472.079C75.0183 471.385 73.3422 470.594 71.7149 469.711C69.8323 471.747 65.0134 474.139 64.3859 474.447C65.049 476.057 65.7001 477.62 66.3395 479.088C67.5235 481.87 68.7075 484.369 69.7376 486.535H67.0854C66.2093 484.57 65.2502 482.356 64.2675 479.94C63.5926 478.295 62.9059 476.542 62.2192 474.731C61.5206 474.873 55.8729 476.021 53.2326 475.429C50.8646 474.885 47.952 473.535 46.8745 471.167C46.6039 470.622 46.4506 470.027 46.4247 469.419C46.3987 468.811 46.5006 468.205 46.7239 467.639C46.9471 467.073 47.2866 466.561 47.7205 466.134C48.1543 465.708 48.6729 465.377 49.2425 465.164C52.7235 463.98 58.0397 467.947 59.9933 470.587C60.0998 470.741 61.1773 472.576 61.8166 473.736C61.5325 472.99 61.2601 472.28 60.976 471.51C60.4195 469.995 59.9104 468.468 59.3657 466.774C59.1171 465.969 58.8803 465.164 58.6317 464.347C58.383 463.53 58.2054 462.654 57.9805 461.802C57.5069 459.812 57.1161 457.776 56.7965 455.704C55.4704 456.189 50.7225 457.847 48.2717 457.669C45.8208 457.492 42.7542 456.604 41.3453 454.425C40.9951 453.926 40.7539 453.359 40.6374 452.76C40.5209 452.162 40.5317 451.545 40.669 450.951C40.8064 450.357 41.0673 449.798 41.4347 449.312C41.8021 448.825 42.2678 448.421 42.8016 448.126C46.0694 446.433 51.9302 449.547 54.2509 451.856C54.3929 451.998 55.8729 453.845 56.6189 454.875C56.4294 453.691 56.2281 452.401 56.0742 451.134C55.6243 447.499 55.2691 443.793 54.8902 440.111C54.7837 438.927 54.6534 437.849 54.535 436.724C54.0733 436.902 48.4729 438.986 45.7261 438.785C43.287 438.619 40.2205 437.719 38.7997 435.54C38.45 435.041 38.2095 434.473 38.0938 433.873C37.9782 433.274 37.99 432.658 38.1285 432.063C38.267 431.469 38.5291 430.911 38.8977 430.425C39.2663 429.939 39.7331 429.535 40.2678 429.242C43.5238 427.56 49.3846 430.662 51.7053 432.971C51.8829 433.149 54.0733 435.813 54.5232 436.523C54.2509 434.049 53.9785 431.574 53.5878 429.147C53.0972 425.872 52.3932 422.633 51.4803 419.45C51.2553 419.533 45.4301 421.735 42.6122 421.534C40.1731 421.368 37.1065 420.468 35.6857 418.29C35.336 417.79 35.0955 417.222 34.9799 416.623C34.8643 416.023 34.8761 415.407 35.0146 414.813C35.1531 414.218 35.4151 413.66 35.7837 413.174C36.1523 412.688 36.6192 412.285 37.1539 411.991C40.4099 410.309 46.2707 413.412 48.5914 415.72C48.7808 415.91 51.0659 418.775 51.4448 419.272C51.3856 419.083 51.3501 418.893 51.2909 418.704C50.2876 415.537 49.0038 412.466 47.4547 409.528C46.6141 407.894 45.7261 406.379 44.8262 404.922C43.7843 405.443 38.9891 407.764 36.4317 407.87C33.8742 407.977 30.8432 407.409 29.1974 405.408C28.795 404.949 28.4934 404.411 28.3123 403.828C28.1311 403.245 28.0744 402.631 28.1459 402.024C28.2173 401.418 28.4153 400.834 28.727 400.309C29.0387 399.785 29.4571 399.331 29.9552 398.979C33.0217 396.954 39.1785 399.393 41.7952 401.441C41.9373 401.548 43.2278 402.838 44.1632 403.809C43.7488 403.158 43.3225 402.483 42.9792 401.868C41.44 399.5 39.889 397.522 38.5037 395.746C37.7104 394.74 36.9645 393.84 36.2659 393.011C34.9753 393.011 29.7776 392.834 27.5043 391.768C25.231 390.702 22.7683 388.784 22.2118 386.239C22.0554 385.643 22.0268 385.022 22.1281 384.414C22.2293 383.807 22.4581 383.228 22.7993 382.716C23.1405 382.204 23.5863 381.77 24.1075 381.442C24.6287 381.115 25.2134 380.901 25.823 380.816C29.4816 380.425 33.815 385.434 35.153 388.429C35.2713 388.69 36.6093 392.952 36.5382 392.94H36.4554C37.1539 393.733 37.888 394.574 38.6694 395.521C40.0902 397.274 41.6886 399.275 43.287 401.572C45.0164 404.016 46.5979 406.563 48.023 409.196C49.6585 412.14 51.0294 415.222 52.1197 418.408V418.526C52.1197 417.449 52.1197 414.442 52.1197 414.205C52.5341 410.961 55.2691 404.922 58.8803 404.247C59.4828 404.152 60.0988 404.184 60.6878 404.343C61.2769 404.502 61.8257 404.783 62.2985 405.169C62.7713 405.555 63.1573 406.036 63.4313 406.581C63.7053 407.126 63.8612 407.723 63.8886 408.332C64.1017 410.925 62.231 413.506 60.4077 415.14C58.3475 416.987 52.617 418.763 52.1197 418.905C53.1265 422.177 53.9175 425.511 54.4877 428.886C54.8429 430.852 55.127 432.841 55.3993 434.806C55.3993 433.871 55.3993 433.042 55.3993 432.924C55.8256 429.668 58.5488 423.629 62.16 422.966C62.7902 422.818 63.4456 422.812 64.0783 422.95C64.7109 423.088 65.3046 423.366 65.8156 423.763C66.3267 424.161 66.7423 424.668 67.0317 425.247C67.3211 425.826 67.477 426.463 67.488 427.11C67.7011 429.703 65.8304 432.284 64.007 433.918C62.1837 435.552 57.3056 437.198 56.015 437.601C56.1098 438.37 56.2163 439.14 56.2992 439.969C56.7491 443.651 57.1635 447.333 57.6963 450.932C57.8739 452.199 58.1107 453.443 58.3357 454.686C58.3357 453.857 58.3357 453.158 58.3357 453.052C58.7619 449.808 61.4851 443.769 65.1082 443.094C65.7055 443.003 66.3153 443.036 66.8989 443.193C67.4825 443.35 68.0271 443.627 68.4981 444.005C68.9691 444.384 69.3562 444.856 69.6348 445.392C69.9135 445.929 70.0775 446.517 70.1165 447.12C70.3296 449.701 68.4589 452.282 66.6237 453.916C64.7885 455.55 60.3958 457.03 58.8685 457.527C59.1408 458.794 59.4013 460.061 59.7209 461.281C59.9577 462.109 60.1235 462.915 60.4077 463.731C60.6918 464.548 60.9286 465.354 61.1891 466.1C61.7337 467.615 62.3021 469.178 62.8704 470.646C63.2611 471.676 63.6637 472.635 64.0544 473.618C63.8531 472.351 63.5216 469.876 63.5097 469.675C63.5506 466.788 64.3291 463.96 65.7712 461.458C65.7673 461.138 65.7871 460.817 65.8304 460.499C65.9072 459.894 66.1103 459.311 66.4266 458.789C66.7429 458.267 67.1654 457.818 67.6665 457.469C68.1677 457.121 68.7365 456.882 69.336 456.768C69.9355 456.653 70.5523 456.666 71.1465 456.805C74.6985 457.752 76.9481 463.98 77.0665 467.26C77.0665 467.449 76.9482 469.569 76.8416 470.895C77.0192 470.125 77.1849 469.367 77.3862 468.527C77.7533 466.964 78.1677 465.401 78.5702 463.731C78.807 462.926 79.0557 462.121 79.3043 461.292C79.553 460.464 79.8726 459.647 80.1568 458.818C80.8672 456.9 81.6565 454.986 82.5248 453.076C81.1395 452.744 76.2851 451.513 74.3315 450.009C72.3779 448.505 70.3296 446.078 70.3414 443.485C70.3239 442.871 70.4366 442.26 70.6723 441.693C70.908 441.126 71.2613 440.615 71.7088 440.195C72.1563 439.774 72.6879 439.453 73.2686 439.253C73.8492 439.053 74.4657 438.978 75.0774 439.033C78.7241 439.424 81.8973 445.249 82.5603 448.505C82.5603 448.707 82.8208 451.063 82.9155 452.365C83.4365 451.181 83.9456 450.08 84.5139 448.943C86.1478 445.652 87.9001 442.372 89.6406 439.104C90.1734 438.098 90.6825 437.091 91.2153 436.085C90.7181 435.967 84.9046 434.629 82.7261 432.948C80.7725 431.456 78.7123 429.017 78.736 426.424C78.7165 425.809 78.828 425.198 79.063 424.63C79.2981 424.061 79.6513 423.55 80.0992 423.129C80.5472 422.708 81.0796 422.387 81.6611 422.187C82.2426 421.988 82.8599 421.914 83.472 421.972C87.1305 422.363 90.2918 428.188 90.9549 431.444C90.9549 431.681 91.3219 435.079 91.3574 435.943C92.5414 433.729 93.6307 431.515 94.6489 429.289C96.0271 426.281 97.2135 423.188 98.201 420.03C97.976 419.971 91.9021 418.597 89.6643 416.869C87.7107 415.377 85.6505 412.938 85.6742 410.345C85.6567 409.731 85.7694 409.12 86.0051 408.553C86.2408 407.986 86.5941 407.475 87.0416 407.055C87.4891 406.634 88.0207 406.313 88.6014 406.113C89.182 405.912 89.7985 405.838 90.4102 405.893C94.0688 406.296 97.2419 412.109 97.905 415.365C97.905 415.614 98.2838 419.26 98.2957 419.935C98.2957 419.746 98.4259 419.568 98.4851 419.379C99.3867 416.179 100.009 412.907 100.344 409.599C100.545 407.776 100.64 406.047 100.687 404.318C99.5033 404.176 94.2464 403.466 92.0678 402.14C89.8893 400.814 87.6515 398.671 87.3318 396.101C87.2486 395.497 87.2932 394.882 87.4626 394.296C87.632 393.711 87.9225 393.167 88.3154 392.7C88.7082 392.234 89.1946 391.855 89.7431 391.588C90.2916 391.322 90.89 391.173 91.4995 391.152C95.1817 391.152 98.9706 396.587 99.977 399.701C99.977 399.878 100.403 401.666 100.652 402.969C100.652 402.199 100.652 401.394 100.652 400.66C100.652 397.877 100.474 395.332 100.297 393.082C100.19 391.803 100.06 390.714 99.9414 389.53C98.8758 388.796 94.6253 385.789 93.3229 383.61C92.0205 381.432 90.9549 378.507 91.9494 376.092C92.1612 375.51 92.4946 374.979 92.9275 374.536C93.3604 374.093 93.8828 373.748 94.4598 373.522C95.0369 373.297 95.6553 373.198 96.2739 373.23C96.8924 373.263 97.4969 373.427 98.047 373.712C101.303 375.405 102.167 382 101.599 385.209C101.599 385.493 100.32 389.779 100.261 389.743C100.403 390.773 100.545 391.886 100.676 393.106C100.9 395.367 101.137 397.913 101.196 400.695C101.299 403.7 101.227 406.709 100.983 409.706C100.723 413.064 100.164 416.392 99.3139 419.651V419.758C99.8941 418.858 101.587 416.372 101.741 416.206C103.896 413.719 109.496 410.191 112.883 411.624C113.436 411.88 113.93 412.249 114.332 412.708C114.734 413.167 115.035 413.705 115.216 414.287C115.397 414.87 115.453 415.484 115.382 416.09C115.31 416.696 115.112 417.28 114.801 417.804C113.486 419.995 110.491 421.072 108.064 421.475Z" fill="#263238"/>
<path d="M45.0749 404.212C45.0749 404.212 43.8909 399.926 43.8909 399.642C43.441 396.397 44.4829 389.85 47.7863 388.252C48.3432 388.002 48.9462 387.873 49.5564 387.871C50.1665 387.87 50.7702 387.996 51.3283 388.243C51.8864 388.49 52.3864 388.851 52.7961 389.303C53.2057 389.755 53.5158 390.288 53.7063 390.868C54.5824 393.307 53.4695 396.303 52.1315 398.363C50.5331 400.778 45.0749 404.212 45.0749 404.212Z" fill="#263238"/>
<path d="M158.384 290.832C156.501 291.661 151.895 291.554 151.895 291.554C151.895 291.554 152.878 288.535 152.973 288.357C153.979 286.238 157.176 282.745 159.781 283.1C160.211 283.171 160.622 283.331 160.986 283.571C161.35 283.811 161.66 284.125 161.894 284.493C162.129 284.86 162.283 285.273 162.348 285.704C162.412 286.136 162.384 286.576 162.267 286.996C161.841 288.736 159.994 290.074 158.384 290.832Z" fill="#263238"/>
<path d="M156.797 304.116C154.844 304.401 150.735 303.217 150.404 303.122C149.725 305.472 148.891 307.774 147.905 310.013C147.349 311.327 146.721 312.629 146.106 313.932C146.484 313.375 146.816 312.89 146.875 312.831C148.403 311.055 152.416 308.533 154.832 309.551C155.228 309.734 155.581 309.997 155.868 310.325C156.156 310.653 156.371 311.037 156.501 311.454C156.63 311.87 156.671 312.309 156.62 312.742C156.569 313.175 156.428 313.592 156.205 313.967C155.317 315.589 153.174 316.335 151.469 316.643C149.764 316.951 146.188 315.956 145.253 315.696C145.004 316.193 144.768 316.691 144.519 317.176C143.335 319.544 142.151 321.912 140.967 324.28C140.576 325.109 140.221 325.938 139.866 326.766L140.529 325.807C142.068 324.043 146.07 321.521 148.485 322.539C148.881 322.722 149.234 322.986 149.522 323.314C149.809 323.641 150.025 324.025 150.156 324.441C150.286 324.857 150.328 325.295 150.279 325.729C150.23 326.162 150.091 326.58 149.871 326.956C148.971 328.578 146.84 329.383 145.135 329.632C143.087 329.648 141.05 329.345 139.096 328.732C138.753 329.584 138.41 330.449 138.125 331.301C137.936 331.881 137.723 332.485 137.569 333.03L137.072 334.782C136.811 335.895 136.527 337.055 136.29 338.156C136.124 338.914 135.971 339.648 135.817 340.382C136.196 339.554 137.001 338.014 137.06 337.825C138.244 335.836 141.879 332.734 144.424 333.385C144.844 333.504 145.234 333.711 145.568 333.991C145.903 334.271 146.174 334.618 146.365 335.01C146.557 335.403 146.663 335.831 146.677 336.267C146.691 336.703 146.614 337.137 146.449 337.541C145.821 339.281 143.82 340.394 142.151 340.915C140.304 341.472 136.231 340.915 135.722 340.915C135.473 342.099 135.248 343.283 135.047 344.467C134.644 346.752 134.337 348.812 134.1 350.6H132.383C132.667 348.753 133.046 346.587 133.567 344.183C133.816 342.94 134.1 341.626 134.408 340.276C133.192 339.781 132.006 339.216 130.856 338.583C129.277 339.946 127.516 341.082 125.622 341.957C126.096 343.141 126.558 344.23 127.02 345.272C127.884 347.261 128.713 349.049 129.459 350.6H127.517C126.877 349.187 126.203 347.609 125.492 345.864C125.007 344.68 124.521 343.437 124.024 342.147C123.539 342.253 119.501 343.07 117.607 342.644C115.902 342.265 113.842 341.294 113.072 339.601C112.872 339.204 112.76 338.77 112.743 338.326C112.726 337.882 112.804 337.44 112.972 337.029C113.141 336.619 113.395 336.249 113.719 335.945C114.042 335.641 114.427 335.41 114.848 335.267C117.334 334.427 121.135 337.257 122.52 339.139C122.603 339.258 123.361 340.56 123.823 341.389C123.633 340.856 123.432 340.347 123.231 339.802C122.84 338.713 122.473 337.624 122.047 336.451C121.881 335.871 121.703 335.267 121.526 334.711C121.348 334.155 121.218 333.527 121.064 332.899C120.721 331.479 120.448 330.022 120.212 328.542C119.264 328.886 115.878 330.07 114.114 329.939C112.35 329.809 110.183 329.182 109.165 327.631C108.917 327.272 108.746 326.865 108.665 326.436C108.583 326.008 108.592 325.567 108.692 325.142C108.791 324.717 108.978 324.317 109.241 323.969C109.504 323.621 109.837 323.331 110.219 323.12C112.587 321.936 116.731 324.138 118.388 325.795C118.495 325.89 119.572 327.216 120.117 327.95C119.987 327.062 119.833 326.174 119.726 325.275C119.406 322.682 119.158 320.029 118.897 317.389C118.826 316.584 118.732 315.779 118.649 315.021C118.317 315.151 114.315 316.643 112.35 316.501C110.609 316.383 108.419 315.731 107.401 314.133C107.15 313.776 106.978 313.371 106.895 312.943C106.811 312.516 106.819 312.075 106.918 311.651C107.016 311.227 107.202 310.828 107.465 310.48C107.728 310.132 108.061 309.844 108.443 309.634C110.811 308.45 114.966 310.652 116.624 312.298C116.754 312.428 118.27 314.323 118.637 314.832C118.447 313.056 118.246 311.28 117.974 309.563C117.61 307.234 117.092 304.932 116.423 302.672C116.269 302.731 112.101 304.306 110.088 304.164C108.348 304.045 106.157 303.394 105.139 301.796C104.889 301.439 104.716 301.034 104.633 300.606C104.55 300.179 104.558 299.738 104.656 299.314C104.754 298.889 104.941 298.49 105.204 298.143C105.466 297.795 105.8 297.507 106.181 297.297C108.549 296.113 112.705 298.303 114.363 299.961C114.493 300.091 116.127 302.139 116.399 302.53C116.399 302.4 116.399 302.258 116.292 302.127C115.571 299.865 114.652 297.67 113.546 295.568C112.954 294.384 112.362 293.318 111.675 292.276C110.929 292.643 107.507 294.313 105.672 294.384C103.837 294.455 101.682 294.052 100.498 292.62C100.211 292.293 99.9958 291.909 99.8668 291.493C99.7377 291.078 99.6976 290.64 99.749 290.207C99.8003 289.775 99.942 289.359 100.165 288.985C100.388 288.611 100.687 288.288 101.043 288.038C103.233 286.581 107.637 288.322 109.473 289.79C109.567 289.873 110.491 290.785 111.154 291.471C110.858 290.998 110.562 290.512 110.266 290.074C109.165 288.428 108.064 286.972 107.069 285.705C106.501 284.983 105.968 284.344 105.471 283.752C104.547 283.752 100.829 283.621 99.2073 282.864C97.5853 282.106 95.8093 280.732 95.4304 278.909C95.3249 278.486 95.3098 278.046 95.386 277.616C95.4623 277.187 95.6281 276.779 95.8728 276.418C96.1174 276.057 96.4354 275.752 96.806 275.522C97.1765 275.292 97.5913 275.143 98.0233 275.085C100.64 274.812 103.742 278.388 104.689 280.531C104.772 280.709 105.731 283.752 105.684 283.752H105.625C106.122 284.32 106.643 284.936 107.199 285.599C108.218 286.854 109.366 288.275 110.503 289.908C111.745 291.662 112.887 293.485 113.924 295.367C115.092 297.47 116.071 299.673 116.849 301.95C116.849 301.95 116.849 302.009 116.849 302.033C116.849 301.263 116.849 299.108 116.849 298.942C117.145 296.574 119.099 292.312 121.68 291.838C122.109 291.775 122.546 291.802 122.964 291.918C123.381 292.034 123.77 292.237 124.105 292.512C124.439 292.788 124.713 293.131 124.907 293.518C125.101 293.906 125.212 294.33 125.232 294.763C125.386 296.61 124.048 298.457 122.745 299.629C121.265 300.943 117.18 302.21 116.825 302.317C117.556 304.644 118.13 307.017 118.542 309.421C118.803 310.83 119.004 312.251 119.193 313.683C119.193 313.02 119.193 312.416 119.193 312.333C119.501 309.965 121.443 305.691 124.024 305.229C124.453 305.168 124.889 305.197 125.306 305.313C125.723 305.43 126.111 305.633 126.445 305.908C126.78 306.183 127.053 306.525 127.247 306.912C127.442 307.298 127.554 307.721 127.576 308.154C127.73 310.001 126.392 311.848 125.078 313.02C123.764 314.192 120.342 315.388 119.371 315.649L119.584 317.294C119.892 319.923 120.2 322.563 120.579 325.132C120.709 326.032 120.875 326.92 121.028 327.808C121.028 327.216 121.028 326.719 121.028 326.624C121.324 324.256 123.278 319.982 125.859 319.52C126.288 319.457 126.725 319.484 127.143 319.6C127.561 319.716 127.95 319.919 128.284 320.194C128.619 320.47 128.892 320.812 129.086 321.2C129.28 321.588 129.391 322.012 129.411 322.445C129.565 324.292 128.227 326.139 126.925 327.299C125.223 328.442 123.354 329.313 121.384 329.88C121.573 330.792 121.763 331.692 121.988 332.568C122.153 333.148 122.272 333.752 122.473 334.308C122.674 334.865 122.852 335.492 123.029 336.037C123.432 337.126 123.823 338.239 124.213 339.293C124.498 340.027 124.782 340.714 125.054 341.412C124.912 340.513 124.675 338.748 124.675 338.595C124.693 336.515 125.248 334.476 126.285 332.675C126.268 332.446 126.268 332.216 126.285 331.988C126.338 331.554 126.482 331.137 126.708 330.763C126.934 330.39 127.236 330.068 127.595 329.82C127.954 329.571 128.362 329.402 128.791 329.323C129.221 329.243 129.662 329.256 130.086 329.359C132.62 330.034 134.23 334.486 134.348 336.819C134.348 336.961 134.266 338.464 134.195 339.423C134.325 338.867 134.443 338.334 134.573 337.766C134.846 336.641 135.142 335.528 135.461 334.332C135.627 333.764 135.805 333.148 135.982 332.592C136.16 332.035 136.397 331.408 136.598 330.827C137.095 329.454 137.676 328.081 138.279 326.719C137.297 326.482 133.828 325.606 132.43 324.529C131.033 323.451 129.565 321.723 129.577 319.864C129.565 319.427 129.646 318.994 129.813 318.591C129.981 318.188 130.232 317.825 130.549 317.525C130.866 317.226 131.243 316.997 131.655 316.853C132.067 316.709 132.505 316.654 132.94 316.691C135.544 316.975 137.818 321.131 138.291 323.427C138.291 323.57 138.469 325.251 138.54 326.174C138.907 325.357 139.274 324.54 139.724 323.735C140.908 321.367 142.092 318.999 143.382 316.702L144.566 314.547C144.211 314.465 140.055 313.506 138.492 312.298C136.93 311.09 135.639 309.492 135.651 307.645C135.638 307.209 135.717 306.775 135.883 306.371C136.049 305.968 136.298 305.604 136.614 305.303C136.931 305.003 137.307 304.772 137.718 304.627C138.129 304.482 138.567 304.425 139.002 304.46C141.618 304.744 143.88 308.9 144.353 311.197C144.353 311.374 144.602 313.79 144.626 314.417C145.454 312.831 146.26 311.244 146.994 309.681C147.993 307.533 148.851 305.322 149.563 303.063C149.397 303.063 145.064 302.033 143.453 300.813C142.068 299.747 140.6 297.995 140.612 296.148C140.599 295.712 140.678 295.278 140.844 294.875C141.01 294.471 141.259 294.107 141.575 293.807C141.892 293.506 142.268 293.276 142.679 293.13C143.09 292.985 143.528 292.928 143.963 292.963C146.579 293.247 148.841 297.403 149.314 299.7C149.314 299.878 149.587 302.494 149.598 302.968C149.598 302.838 149.693 302.708 149.729 302.577C150.375 300.292 150.819 297.955 151.055 295.592C151.209 294.277 151.268 293.034 151.303 291.803C150.486 291.708 146.709 291.199 145.147 290.252C143.584 289.305 141.985 287.777 141.796 285.93C141.736 285.496 141.768 285.054 141.89 284.634C142.011 284.213 142.22 283.822 142.503 283.487C142.785 283.152 143.135 282.88 143.529 282.689C143.923 282.498 144.353 282.392 144.791 282.378C147.408 282.378 150.119 286.262 150.842 288.488C150.842 288.618 151.149 289.885 151.327 290.856C151.327 290.311 151.327 289.672 151.327 289.21C151.327 287.221 151.197 285.409 151.067 283.799C150.996 282.887 150.901 282.059 150.818 281.289C150.048 280.768 147.017 278.625 146.082 277.086C145.147 275.547 144.424 273.439 145.111 271.71C145.257 271.3 145.488 270.925 145.789 270.609C146.09 270.294 146.454 270.045 146.857 269.88C147.26 269.715 147.694 269.636 148.129 269.65C148.565 269.663 148.993 269.768 149.385 269.958C151.753 271.142 152.333 275.878 151.943 278.163C151.943 278.364 151.031 281.431 150.984 281.407C151.078 282.153 151.185 282.947 151.28 283.775C151.434 285.386 151.599 287.209 151.647 289.198C151.716 291.346 151.665 293.497 151.493 295.639C151.312 298.038 150.916 300.415 150.309 302.743C150.314 302.77 150.314 302.799 150.309 302.826C150.723 302.175 151.943 300.458 152.049 300.28C153.577 298.504 157.59 295.982 160.006 297.001C160.402 297.183 160.755 297.447 161.042 297.775C161.33 298.103 161.545 298.487 161.675 298.903C161.804 299.32 161.845 299.758 161.794 300.191C161.743 300.624 161.602 301.042 161.379 301.417C160.669 303.063 158.526 303.856 156.797 304.116Z" fill="#263238"/>
<path d="M111.781 291.791C111.781 291.791 110.941 288.724 110.917 288.523C110.586 286.155 111.331 281.526 113.688 280.389C114.086 280.21 114.518 280.116 114.955 280.114C115.392 280.113 115.824 280.203 116.224 280.379C116.624 280.556 116.982 280.814 117.275 281.138C117.569 281.462 117.79 281.844 117.926 282.26C118.554 284 117.749 286.131 116.802 287.6C115.677 289.328 111.781 291.791 111.781 291.791Z" fill="#263238"/>
<path d="M338.813 68.5597H258.455L245.621 126.919H351.648L338.813 68.5597Z" fill="#F0F0F0" stroke="#263238" stroke-linecap="round" stroke-linejoin="round"/>
<path d="M364.447 125.853H232.822L211.806 212.937H385.463L364.447 125.853Z" fill="#E3E3E3" stroke="#263238" stroke-linecap="round" stroke-linejoin="round"/>
<path d="M338.731 126.007H258.55V136.58H338.731V126.007Z" fill="white" stroke="#263238" stroke-linecap="round" stroke-linejoin="round"/>
<path d="M340.886 135.598H256.383V146.396H340.886V135.598Z" fill="white" stroke="#263238" stroke-linecap="round" stroke-linejoin="round"/>
<path d="M343.052 145.745H254.229V156.756H343.052V145.745Z" fill="white" stroke="#263238" stroke-linecap="round" stroke-linejoin="round"/>
<path d="M345.207 156.176H252.062V167.412H345.207V156.176Z" fill="white" stroke="#263238" stroke-linecap="round" stroke-linejoin="round"/>
<path d="M347.374 166.879H249.907V178.328H347.374V166.879Z" fill="white" stroke="#263238" stroke-linecap="round" stroke-linejoin="round"/>
<path d="M349.529 177.855H247.74V189.529H349.529V177.855Z" fill="white" stroke="#263238" stroke-linecap="round" stroke-linejoin="round"/>
<path d="M351.684 189.387H245.573V201.286H351.684V189.387Z" fill="white" stroke="#263238" stroke-linecap="round" stroke-linejoin="round"/>
<path d="M353.85 200.647H243.419V212.759H353.85V200.647Z" fill="white" stroke="#263238" stroke-linecap="round" stroke-linejoin="round"/>
<path d="M317.371 68.7018H279.898V75.6874H317.371V68.7018Z" fill="white" stroke="#263238" stroke-linecap="round" stroke-linejoin="round"/>
<path d="M318.389 75.048H278.891V82.1757H318.389V75.048Z" fill="white" stroke="#263238" stroke-linecap="round" stroke-linejoin="round"/>
<path d="M319.384 81.7495H277.873V89.0192H319.384V81.7495Z" fill="white" stroke="#263238" stroke-linecap="round" stroke-linejoin="round"/>
<path d="M320.402 88.6285H276.867V96.0522H320.402V88.6285Z" fill="white" stroke="#263238" stroke-linecap="round" stroke-linejoin="round"/>
<path d="M321.421 95.697H275.86V103.263H321.421V95.697Z" fill="white" stroke="#263238" stroke-linecap="round" stroke-linejoin="round"/>
<path d="M322.415 102.955H274.842V110.663H322.415V102.955Z" fill="white" stroke="#263238" stroke-linecap="round" stroke-linejoin="round"/>
<path d="M323.433 110.568H273.836V118.43H323.433V110.568Z" fill="white" stroke="#263238" stroke-linecap="round" stroke-linejoin="round"/>
<path d="M324.44 118.004H272.829V126.007H324.44V118.004Z" fill="white" stroke="#263238" stroke-linecap="round" stroke-linejoin="round"/>
<path d="M409.593 212.333H187.676L152.251 343.07H445.018L409.593 212.333Z" fill="#C7C7C7" stroke="#263238" stroke-linecap="round" stroke-linejoin="round"/>
<path d="M492.284 338.973H104.985L67.5828 486.429H529.686L492.284 338.973Z" fill="#C7C7C7" stroke="#263238" stroke-linecap="round" stroke-linejoin="round"/>
<path d="M444.391 353.762H152.878L153.873 339.198H443.396L444.391 353.762Z" fill="white" stroke="#263238" stroke-linecap="round" stroke-linejoin="round"/>
<path d="M448.097 368.964H149.172L150.214 353.916H447.055L448.097 368.964Z" fill="white" stroke="#263238" stroke-linecap="round" stroke-linejoin="round"/>
<path d="M451.862 384.38H145.407L146.508 368.846H450.761L451.862 384.38Z" fill="white" stroke="#263238" stroke-linecap="round" stroke-linejoin="round"/>
<path d="M455.674 400.021H141.595L142.743 383.989H454.526L455.674 400.021Z" fill="white" stroke="#263238" stroke-linecap="round" stroke-linejoin="round"/>
<path d="M459.546 415.886H137.723L138.931 399.346H458.338L459.546 415.886Z" fill="white" stroke="#263238" stroke-linecap="round" stroke-linejoin="round"/>
<path d="M463.56 433.113H133.709L134.976 416.028H462.293L463.56 433.113Z" fill="white" stroke="#263238" stroke-linecap="round" stroke-linejoin="round"/>
<path d="M467.633 450.601H129.636L130.962 432.971H466.307L467.633 450.601Z" fill="white" stroke="#263238" stroke-linecap="round" stroke-linejoin="round"/>
<path d="M471.777 468.373H125.492L126.889 450.163H470.38L471.777 468.373Z" fill="white" stroke="#263238" stroke-linecap="round" stroke-linejoin="round"/>
<path d="M475.98 486.429H121.289L122.757 467.639H474.512L475.98 486.429Z" fill="white" stroke="#263238" stroke-linecap="round" stroke-linejoin="round"/>
<path d="M375.553 212.285H221.716V227.76H375.553V212.285Z" fill="white" stroke="#263238" stroke-linecap="round" stroke-linejoin="round"/>
<path d="M379.697 226.316H217.572V242.11H379.697V226.316Z" fill="white" stroke="#263238" stroke-linecap="round" stroke-linejoin="round"/>
<path d="M383.853 241.163H213.428V257.277H383.853V241.163Z" fill="white" stroke="#263238" stroke-linecap="round" stroke-linejoin="round"/>
<path d="M387.985 256.425H209.272V272.859H387.985V256.425Z" fill="white" stroke="#263238" stroke-linecap="round" stroke-linejoin="round"/>
<path d="M392.141 272.077H205.128V288.831H392.141V272.077Z" fill="white" stroke="#263238" stroke-linecap="round" stroke-linejoin="round"/>
<path d="M396.285 288.144H200.984V305.229H396.285V288.144Z" fill="white" stroke="#263238" stroke-linecap="round" stroke-linejoin="round"/>
<path d="M400.441 305.016H196.84V322.421H400.441V305.016Z" fill="white" stroke="#263238" stroke-linecap="round" stroke-linejoin="round"/>
<path d="M404.573 321.498H192.684V339.222H404.573V321.498Z" fill="white" stroke="#263238" stroke-linecap="round" stroke-linejoin="round"/>
<path d="M286.339 191.281C286.339 191.281 281.603 189.884 281.875 194.076C282.147 198.267 287.167 201.049 287.167 201.049L286.339 191.281Z" fill="white" stroke="#263238" stroke-linecap="round" stroke-linejoin="round"/>
<path d="M315.347 191.281C315.347 191.281 319.254 189.328 319.254 192.963C319.254 196.597 315.074 200.209 315.074 200.209L315.347 191.281Z" fill="white" stroke="#263238" stroke-linecap="round" stroke-linejoin="round"/>
<path d="M285.782 179.844C285.782 179.844 286.054 199.652 287.167 203.287C288.28 206.922 291.631 211.658 294.71 211.658C297.788 211.658 308.101 210.817 310.102 209.704C311.61 208.617 312.847 207.197 313.718 205.555C314.588 203.912 315.069 202.091 315.122 200.232C315.122 195.769 315.678 184.615 315.678 184.615C316.906 183.663 317.868 182.412 318.472 180.98C319.585 178.47 315.678 174.847 314.838 174.563C313.997 174.279 310.93 173.45 310.93 173.45C310.93 173.45 312.884 171.781 312.327 170.384C311.771 168.987 306.467 168.146 304.241 168.146C302.464 168.33 300.75 168.904 299.221 169.827C299.221 169.827 290.293 169.543 287.499 172.894C286.684 173.834 286.103 174.954 285.805 176.162C285.507 177.37 285.499 178.632 285.782 179.844Z" fill="#263238" stroke="#263238" stroke-linecap="round" stroke-linejoin="round"/>
<path d="M317.028 215.553L281.307 216.122C281.307 216.122 282.988 210.817 284.942 210.202C286.895 209.586 306.976 209.077 311.167 209.645C315.358 210.213 317.028 215.553 317.028 215.553Z" fill="#21A7AF" stroke="#263238" stroke-linecap="round" stroke-linejoin="round"/>
<path d="M304.584 451.205C304.584 451.205 303.068 467.426 304.359 467.935C305.65 468.444 309.509 470.303 318.78 467.935C321.243 467.319 316.72 450.684 316.72 450.684C316.72 450.684 310.729 454.307 304.584 451.205Z" fill="#263238" stroke="#263238" stroke-linecap="round" stroke-linejoin="round"/>
<path d="M261.664 325.606L266.4 396.208C266.4 396.208 263.558 409.232 266.163 420.764C268.768 432.296 273.007 472.943 273.007 472.943C273.007 472.943 275.126 468.929 282.218 468.207C289.31 467.485 290.708 470.326 290.708 470.326C290.708 470.326 290.246 439.637 290.246 436.097C290.246 432.557 293.076 410.132 292.839 403.276C292.571 398.358 291.938 393.467 290.944 388.642L292.602 345.912L296.379 345.438C296.379 345.438 293.786 380.615 295.432 388.642C297.078 396.67 301.103 421.7 301.352 423.819C301.6 425.938 304.655 451.205 304.655 451.205C304.655 451.205 310.788 452.862 313.63 452.626C315.435 452.408 317.108 451.571 318.366 450.258C318.366 450.258 323.552 412.239 323.102 406.343C322.652 400.447 317.182 386.274 317.182 385.09C317.182 383.906 315.761 375.879 315.761 375.879C315.761 375.879 325.683 348.256 327.329 338.346C328.974 328.436 329.152 323.984 329.152 323.984C329.152 323.984 301.056 328.471 287.12 328.471C278.557 328.429 270.023 327.469 261.664 325.606Z" fill="#21A7AF" stroke="#263238" stroke-linecap="round" stroke-linejoin="round"/>
<path d="M274.321 395.829C278.042 392.723 282.001 389.912 286.161 387.423" stroke="#263238" stroke-linecap="round" stroke-linejoin="round"/>
<path d="M268.638 400.837C268.638 400.837 269.822 399.653 271.906 397.889" stroke="#263238" stroke-linecap="round" stroke-linejoin="round"/>
<path d="M273.788 391.212L288.576 381.242" stroke="#263238" stroke-linecap="round" stroke-linejoin="round"/>
<path d="M329.152 323.984C329.152 323.984 301.056 328.471 287.12 328.471C278.557 328.429 270.023 327.469 261.664 325.606L261.948 329.809C266.033 332.888 273.303 338.524 279.27 344.017C286.303 350.458 290.755 353.17 292.294 353.998L292.602 345.935L296.379 345.462C296.379 345.462 293.786 380.638 295.432 388.666C296.201 392.36 297.456 399.665 298.617 406.686C300.357 401.205 303.684 394.645 309.794 394.018C313.669 393.669 317.548 394.637 320.805 396.764C319.124 391.271 317.158 385.836 317.158 385.126C317.158 383.942 315.737 375.914 315.737 375.914C315.737 375.914 325.659 348.292 327.305 338.381C328.951 328.471 329.152 323.984 329.152 323.984Z" fill="#263238" stroke="#263238" stroke-linecap="round" stroke-linejoin="round"/>
<path d="M253.376 311.753C253.376 311.753 255.117 315.045 256.277 315.436C257.437 315.826 258.408 319.307 258.408 322.788C258.408 326.269 257.224 326.66 257.224 326.66C257.727 327.312 258.074 328.07 258.24 328.876C258.406 329.682 258.387 330.515 258.183 331.313C257.414 333.823 252.382 335.564 250.25 336.345C248.119 337.126 244.828 333.634 243.478 331.893C242.128 330.153 243.087 316.205 243.087 316.205C243.087 316.205 252.606 313.695 253.376 311.753Z" fill="white" stroke="#263238" stroke-linecap="round" stroke-linejoin="round"/>
<path d="M257.26 326.66C257.26 326.66 253.388 328.211 252.808 328.602C252.228 328.992 250.096 326.47 250.866 325.701C252.039 324.726 253.269 323.821 254.548 322.989" stroke="#263238" stroke-linecap="round" stroke-linejoin="round"/>
<path d="M249.315 319.698C249.315 319.698 253.388 320.657 252.026 324.339" stroke="#263238" stroke-linecap="round" stroke-linejoin="round"/>
<path d="M251.636 328.021C251.636 328.021 247.574 329.572 247.574 331.112C247.574 332.651 249.516 334.664 250.677 334.403C251.837 334.143 250.475 332.663 250.475 332.663" stroke="#263238" stroke-linecap="round" stroke-linejoin="round"/>
<path d="M348.439 319.698C346.831 321.559 345.404 323.569 344.177 325.701C343.218 327.82 341.276 329.762 341.667 331.112C342.058 332.461 342.247 333.48 342.247 333.48C342.247 333.48 340.507 337.541 342.247 338.701C343.373 339.532 344.721 340.006 346.119 340.063C346.888 340.063 349.99 342.573 352.122 342.182C354.253 341.791 357.343 340.832 357.544 334.249C357.746 327.666 358.503 320.112 358.503 320.112C358.503 320.112 351.541 319.698 348.439 319.698Z" stroke="#263238" stroke-linecap="round" stroke-linejoin="round"/>
<path d="M342.247 333.456C342.247 333.456 347.469 336.748 349.02 336.748C350.571 336.748 351.731 334.38 350.571 333.255C349.164 332.056 347.677 330.956 346.119 329.963" stroke="#263238" stroke-linecap="round" stroke-linejoin="round"/>
<path d="M352.5 325.89C352.5 325.89 349.41 329.371 350.571 333.243" stroke="#263238" stroke-linecap="round" stroke-linejoin="round"/>
<path d="M351.151 334.403C351.151 334.403 354.833 335.374 355.022 336.534C355.212 337.695 354.833 339.636 354.052 339.636C353.27 339.636 352.868 338.275 352.868 338.275" stroke="#263238" stroke-linecap="round" stroke-linejoin="round"/>
<path d="M361.392 318.242C360.396 320.382 358.735 322.143 356.656 323.262C353.294 324.931 347.445 320.468 347.445 320.468L341.3 284.474L327.909 264.346L326.784 293.685C326.784 293.685 332.088 326.044 331.26 326.612C330.431 327.181 318.141 332.746 297.492 334.983C276.843 337.221 258.716 327.453 258.716 327.453L267.359 293.958L263.452 269.094L253.826 284.178L255.081 310.108C255.081 310.108 252.855 315.968 248.948 316.809C246.457 317.296 243.896 317.296 241.406 316.809C241.409 316.777 241.409 316.746 241.406 316.714C241.406 316.548 241.323 316.17 241.228 315.613C241.228 315.364 241.145 315.068 241.086 314.737C241.015 314.228 240.908 313.624 240.802 312.961C240.695 312.298 240.636 311.907 240.541 311.327C240.447 310.747 240.352 310.143 240.245 309.504C238.742 300.126 236.315 284.959 236.125 283.61V283.55C236.125 280.934 254.264 234.213 255.365 233.112C256.466 232.011 256.549 228.376 260.397 225.854C264.245 223.332 285.261 214.701 285.261 214.701C293.336 212.179 315.666 215.53 315.666 215.53C315.666 215.53 324.321 220.55 325.434 221.118C326.547 221.686 338.541 228.921 341.335 230.59C344.13 232.26 344.402 235.326 345.515 238.961C346.628 242.596 354.726 269.378 357.236 274.114C359.747 278.85 361.392 318.242 361.392 318.242Z" fill="#21A7AF" stroke="#263238" stroke-linecap="round" stroke-linejoin="round"/>
<path d="M253.826 284.213L255.081 310.143C255.081 310.143 252.855 316.004 248.948 316.844C246.457 317.332 243.896 317.332 241.406 316.844C241.409 316.813 241.409 316.781 241.406 316.75C241.406 316.584 241.323 316.205 241.228 315.649C241.228 315.4 241.145 315.092 241.086 314.772C241.015 314.263 240.908 313.66 240.802 312.996C240.695 312.333 240.636 311.943 240.541 311.363C240.447 310.782 240.352 310.179 240.245 309.539C238.742 300.162 236.315 284.995 236.125 283.645V283.586C237.735 284.498 240.731 285.954 242.649 285.634C244.105 285.362 245.869 283.42 247.16 281.715C247.42 280.934 247.634 280.354 247.752 280.01C249.149 276.257 257.331 253.512 257.331 253.512L263.464 269.141L253.826 284.213Z" fill="#263238" stroke="#263238" stroke-linecap="round" stroke-linejoin="round"/>
<path d="M258.432 243.176L263.452 269.129" stroke="#263238" stroke-linecap="round" stroke-linejoin="round"/>
<path d="M331.911 246.385L327.909 264.381L336.28 246.527" stroke="#263238" stroke-linecap="round" stroke-linejoin="round"/>
<path d="M333.485 239.281L332.846 242.146" stroke="#263238" stroke-linecap="round" stroke-linejoin="round"/>
<path d="M295.538 249.037C295.538 249.037 311.724 278.637 314.79 280.567" stroke="#263238" stroke-linecap="round" stroke-linejoin="round"/>
<path d="M312.872 283.077L315.074 285.03" stroke="#263238" stroke-linecap="round" stroke-linejoin="round"/>
<path d="M300.286 271.924L310.587 281.064" stroke="#263238" stroke-linecap="round" stroke-linejoin="round"/>
<path d="M361.392 318.242C361.392 318.242 360.942 307.657 360.149 296.799C355.318 295.142 349.765 292.821 347.717 290.335C343.81 285.599 329.578 266.335 329.578 266.335V266.939L341.264 284.474L347.397 320.467C347.397 320.467 353.258 324.931 356.609 323.262C358.706 322.151 360.384 320.389 361.392 318.242Z" fill="#263238" stroke="#263238" stroke-linecap="round" stroke-linejoin="round"/>
<path d="M272.948 472.931L272.427 481.326C272.427 481.326 268.306 486.997 269.336 490.087C270.366 493.178 274.487 492.657 280.667 492.657C286.848 492.657 291.229 488.288 291.229 484.369C291.229 480.45 290.648 470.279 290.648 470.279C290.648 470.279 288.02 467.911 282.159 468.16C280.379 468.281 278.642 468.768 277.058 469.589C275.473 470.41 274.074 471.547 272.948 472.931Z" fill="#263238" stroke="#263238" stroke-linecap="round" stroke-linejoin="round"/>
<path d="M289.725 488.453C288.65 487.59 287.379 487.005 286.024 486.751C284.669 486.497 283.272 486.582 281.958 486.997C277.435 488.501 274.712 491.26 271.385 492.124C273.374 492.882 276.559 492.657 280.667 492.657C282.398 492.696 284.115 492.338 285.685 491.609C287.255 490.88 288.638 489.801 289.725 488.453Z" fill="white" stroke="#263238" stroke-linecap="round" stroke-linejoin="round"/>
<path d="M366.945 21.8746C366.638 20.1104 366.188 15.7178 368.852 13.5866C372.25 10.8515 374.653 15.7651 377.601 11.9408C380.55 8.11648 381.426 -0.183363 390.164 -0.0768035C398.902 0.0297566 399.565 4.94336 399.565 6.58912C399.565 8.23488 402.193 9.43072 402.738 9.43072C403.282 9.43072 406.349 8.00992 407.474 11.183C408.598 14.3562 407.829 16.1795 409.558 16.2506C411.286 16.3216 413.453 13.8826 415.821 15.0666C418.189 16.2506 418.189 18.7725 419.172 19.6486C420.154 20.5248 421.788 18.9856 423.979 19.8618C424.43 20.0004 424.836 20.2549 425.158 20.5997C425.48 20.9446 425.706 21.3678 425.814 21.8272L366.945 21.8746Z" fill="white" stroke="black" stroke-miterlimit="10"/>
<path d="M352.832 96.8099C352.252 93.5184 351.423 85.3843 356.384 81.4179C362.671 76.3504 367.135 85.479 372.617 78.375C378.099 71.271 379.721 55.879 395.953 56.0566C412.186 56.2342 413.406 65.3865 413.406 68.4294C413.406 71.4723 418.272 73.7101 419.326 73.7101C420.379 73.7101 426.015 71.0697 428.04 76.9542C430.064 82.8387 428.703 86.2486 431.923 86.4262C435.144 86.6038 439.146 82.152 443.538 84.3542C447.931 86.5565 447.931 91.2214 449.754 92.8435C451.578 94.4656 454.621 91.6595 458.682 93.2461C459.523 93.4992 460.282 93.9714 460.881 94.6142C461.481 95.257 461.898 96.0474 462.092 96.9046L352.832 96.8099Z" fill="white" stroke="black" stroke-miterlimit="10"/>
<path d="M282.455 162.226C283.639 155.607 285.309 139.173 275.351 131.11C262.659 120.869 253.648 139.292 242.59 124.965C231.531 110.639 228.252 79.4998 195.49 79.9734C162.729 80.447 160.266 98.8108 160.266 104.956C160.266 111.101 150.439 115.612 148.426 115.612C146.413 115.612 134.917 110.284 130.82 122.171C126.724 134.059 129.494 140.914 122.994 141.115C116.494 141.316 108.312 132.472 99.456 136.912C90.5997 141.352 90.5997 150.777 86.9175 154.056C83.2352 157.336 77.0784 151.594 68.897 154.873C63.9242 156.851 62.4323 160.035 62.0179 162.238L282.455 162.226Z" fill="white" stroke="black" stroke-miterlimit="10"/>
<path d="M199.954 95.1405C200.321 93.0448 200.854 87.8352 197.692 85.2896C193.667 82.0454 190.813 87.8826 187.309 83.336C183.804 78.7894 182.774 68.9386 172.402 69.128C162.03 69.3174 161.249 75.048 161.249 77.049C161.249 79.0499 158.135 80.4115 157.484 80.4115C156.833 80.4115 153.21 78.7302 151.907 82.4954C150.605 86.2605 151.493 88.4154 149.433 88.5101C147.372 88.6048 144.815 85.775 142.009 87.184C139.203 88.593 139.203 91.5648 138.031 92.6067C136.859 93.6486 134.917 91.8253 132.324 92.8672C131.781 93.0296 131.293 93.3353 130.909 93.752C130.526 94.1687 130.262 94.6811 130.145 95.2352L199.954 95.1405Z" fill="white" stroke="black" stroke-miterlimit="10"/>
</g>
<defs>
<clipPath id="clip0_2_34">
<rect width="592" height="493" fill="white"/>
</clipPath>
</defs>
</svg>
