<svg width="25" height="25" viewBox="0 0 25 25" fill="none" xmlns="http://www.w3.org/2000/svg">
<rect width="25" height="25" rx="12.5" fill="#9E9E9E"/>
<path d="M18.1422 8.76667C17.1101 7.96666 15.8716 7.56667 14.5642 7.5L14.3578 7.70001C15.5275 7.96666 16.5597 8.49998 17.5229 9.23332C16.3532 8.63333 15.0459 8.23334 13.6697 8.1C13.2569 8.03333 12.9128 8.03333 12.5 8.03333C12.0872 8.03333 11.7431 8.03333 11.3303 8.1C9.95413 8.23334 8.64678 8.63333 7.47706 9.23332C8.44034 8.49998 9.47248 7.96666 10.6422 7.70001L10.4358 7.5C9.12842 7.56667 7.88989 7.96666 6.8578 8.76667C5.68807 10.9 5.06881 13.3 5 15.7666C6.03209 16.8333 7.47706 17.5 8.99084 17.5C8.99084 17.5 9.47248 16.9667 9.8165 16.5C8.92203 16.3 8.09633 15.8333 7.54588 15.1C8.02752 15.3666 8.50916 15.6333 8.99084 15.8333C9.61011 16.1 10.2294 16.2333 10.8486 16.3667C11.3991 16.4333 11.9495 16.5 12.5 16.5C13.0505 16.5 13.6009 16.4333 14.1514 16.3667C14.7706 16.2333 15.3899 16.1 16.0092 15.8333C16.4908 15.6333 16.9725 15.3666 17.4541 15.1C16.9037 15.8333 16.078 16.3 15.1835 16.5C15.5275 16.9667 16.0092 17.5 16.0092 17.5C17.5229 17.5 18.9679 16.8333 20 15.7666C19.9312 13.3 19.3119 10.9 18.1422 8.76667ZM10.2294 14.5666C9.5413 14.5666 8.92203 13.9666 8.92203 13.2333C8.92203 12.5 9.5413 11.9 10.2294 11.9C10.9175 11.9 11.5367 12.5 11.5367 13.2333C11.5367 13.9666 10.9175 14.5666 10.2294 14.5666ZM14.7706 14.5666C14.0825 14.5666 13.4633 13.9666 13.4633 13.2333C13.4633 12.5 14.0825 11.9 14.7706 11.9C15.4587 11.9 16.078 12.5 16.078 13.2333C16.078 13.9666 15.4587 14.5666 14.7706 14.5666Z" fill="#F5F5F5"/>
</svg>
